<?xml version="1.0" encoding="UTF-8"?>
<svg xmlns="http://www.w3.org/2000/svg" xmlns:xlink="http://www.w3.org/1999/xlink" width="131pt" height="65pt" viewBox="0 0 65 65" version="1.1">
<defs>
<linearGradient id="linear0" gradientUnits="userSpaceOnUse" x1="8595.4" y1="8595.4" x2="548.64" y2="548.63" gradientTransform="matrix(0.00710849,0,0,0.00710849,0,0)">
<stop offset="0" style="stop-color:rgb(28.235294%,81.176471%,68.235294%);stop-opacity:1;"/>
<stop offset="1" style="stop-color:rgb(30.980392%,75.294118%,90.980392%);stop-opacity:1;"/>
</linearGradient>
</defs>
<g id="surface1">
<rect x="-33" y="0" width="131" height="65" style="fill:url(#linear0);stroke:none;"/>
<path style=" stroke:none;fill-rule:nonzero;fill:rgb(100%,100%,100%);fill-opacity:1;" d="M 32.152344 28.199219 L 28.910156 28.199219 C 28.867188 28.199219 28.824219 28.199219 28.789062 28.191406 C 26.40625 27.90625 24.226562 27.011719 22.40625 25.945312 C 20.273438 24.703125 18.601562 23.152344 17.644531 22.085938 C 17.523438 22.683594 17.488281 23.464844 17.609375 24.347656 C 17.757812 25.46875 18.167969 26.742188 18.988281 28.015625 C 19.023438 28.078125 19.050781 28.121094 19.078125 28.15625 C 19.171875 28.277344 19.234375 28.363281 19.277344 28.527344 C 19.433594 29.128906 19.234375 29.308594 18.511719 29.5 L 18.480469 29.507812 C 18.132812 29.59375 17.722656 29.628906 17.300781 29.601562 L 17.253906 29.601562 C 17.480469 30.351562 17.84375 31.121094 18.324219 31.867188 C 19.023438 32.941406 19.96875 33.972656 21.105469 34.882812 L 21.121094 34.894531 C 21.15625 34.917969 21.191406 34.945312 21.21875 34.964844 C 21.398438 35.09375 21.511719 35.171875 21.574219 35.4375 C 21.722656 36.054688 21.496094 36.167969 20.871094 36.324219 C 20.449219 36.425781 20.039062 36.472656 19.660156 36.472656 L 19.613281 36.472656 C 19.859375 36.871094 20.246094 37.320312 20.699219 37.773438 C 21.929688 39.003906 23.59375 40.175781 24.511719 40.667969 L 24.636719 40.730469 C 24.972656 40.894531 25.144531 40.972656 25.144531 41.414062 L 25.144531 41.421875 C 25.136719 41.785156 25 41.882812 24.714844 42.089844 L 24.589844 42.183594 C 23.089844 43.296875 21.359375 43.878906 19.726562 44.179688 C 19.164062 44.285156 18.617188 44.351562 18.097656 44.398438 C 19.683594 45.089844 21.28125 45.578125 22.867188 45.878906 C 26.890625 46.625 30.824219 46.132812 34.253906 44.550781 C 37.6875 42.964844 40.632812 40.289062 42.671875 36.679688 C 43.851562 34.589844 44.734375 32.179688 45.238281 29.484375 C 45.941406 25.695312 46.132812 25.492188 47.683594 23.804688 L 48.054688 23.410156 L 47.035156 23.410156 C 46.675781 23.410156 46.375 23.109375 46.375 22.738281 C 46.375 22.613281 46.410156 22.492188 46.476562 22.390625 L 47.578125 20.648438 C 46.632812 20.792969 45.886719 20.847656 45.273438 20.84375 C 44.300781 20.835938 43.667969 20.671875 43.199219 20.421875 C 43.148438 20.394531 43.105469 20.359375 43.0625 20.324219 C 41.699219 19.308594 40.304688 18.824219 39.011719 18.78125 C 37.804688 18.738281 36.671875 19.078125 35.726562 19.703125 C 34.78125 20.335938 34.019531 21.253906 33.550781 22.378906 C 33.019531 23.65625 32.871094 25.199219 33.253906 26.863281 L 33.253906 26.890625 C 33.269531 26.941406 33.296875 27.027344 33.308594 27.097656 L 33.316406 27.125 C 33.410156 27.472656 33.453125 27.660156 33.195312 27.949219 C 32.960938 28.21875 32.777344 28.214844 32.40625 28.199219 Z M 28.9375 26.871094 L 31.894531 26.871094 C 31.535156 25.027344 31.726562 23.316406 32.328125 21.871094 C 32.898438 20.5 33.828125 19.378906 34.996094 18.601562 C 36.160156 17.828125 37.5625 17.410156 39.054688 17.457031 C 40.605469 17.507812 42.261719 18.070312 43.851562 19.265625 C 44.152344 19.414062 44.585938 19.511719 45.28125 19.519531 C 46.085938 19.527344 47.207031 19.398438 48.8125 19.085938 L 48.8125 19.09375 C 48.96875 19.058594 49.140625 19.085938 49.289062 19.179688 C 49.601562 19.378906 49.695312 19.78125 49.496094 20.09375 L 48.238281 22.085938 L 49.480469 22.085938 C 49.644531 22.078125 49.816406 22.128906 49.953125 22.242188 C 50.230469 22.484375 50.257812 22.902344 50.023438 23.179688 C 49.460938 23.835938 49.019531 24.316406 48.65625 24.710938 C 47.335938 26.144531 47.179688 26.316406 46.539062 29.726562 C 46.011719 32.5625 45.074219 35.109375 43.824219 37.328125 C 41.640625 41.195312 38.492188 44.058594 34.808594 45.75 C 31.136719 47.449219 26.925781 47.980469 22.625 47.179688 C 20.160156 46.71875 17.664062 45.8125 15.21875 44.441406 C 14.984375 44.34375 14.820312 44.109375 14.820312 43.839844 C 14.820312 43.46875 15.121094 43.167969 15.480469 43.167969 C 16.5625 43.167969 18.003906 43.148438 19.492188 42.878906 C 20.765625 42.644531 22.085938 42.222656 23.273438 41.476562 C 22.25 40.839844 20.84375 39.792969 19.761719 38.707031 C 18.78125 37.726562 18.042969 36.671875 18 35.761719 C 17.992188 35.691406 18 35.613281 18.019531 35.535156 C 18.113281 35.179688 18.476562 34.964844 18.824219 35.058594 C 18.972656 35.101562 19.164062 35.128906 19.378906 35.144531 C 18.523438 34.347656 17.792969 33.480469 17.214844 32.59375 C 16.421875 31.363281 15.910156 30.082031 15.722656 28.832031 C 15.710938 28.726562 15.71875 28.605469 15.757812 28.492188 C 15.894531 28.15625 16.285156 27.984375 16.621094 28.121094 C 16.847656 28.214844 17.109375 28.261719 17.378906 28.277344 C 17.453125 28.277344 17.523438 28.285156 17.59375 28.285156 C 16.839844 26.976562 16.449219 25.683594 16.292969 24.523438 C 16.058594 22.78125 16.363281 21.304688 16.804688 20.53125 C 16.910156 20.324219 17.117188 20.179688 17.359375 20.160156 C 17.730469 20.136719 18.042969 20.414062 18.0625 20.785156 C 18.078125 20.96875 20.03125 23.03125 23.066406 24.800781 C 24.757812 25.78125 26.761719 26.613281 28.9375 26.871094 Z M 28.9375 26.871094 "/>
</g>
</svg>
